<?xml version="1.0" encoding="UTF-8" standalone="no"?>
<svg width="187px" height="63px" viewBox="0 0 187 63" version="1.1" xmlns="http://www.w3.org/2000/svg" xmlns:xlink="http://www.w3.org/1999/xlink">
    <!-- Generator: Sketch 39.1 (31720) - http://www.bohemiancoding.com/sketch -->
    <title>logos copy</title>
    <desc>Created with Sketch.</desc>
    <defs></defs>
    <g id="Symbols" stroke="none" stroke-width="1" fill="none" fill-rule="evenodd">
        <g id="Cabezote-v2" transform="translate(-187.000000, -17.000000)" fill="#003A89">
            <g id="logos-copy" transform="translate(187.156786, 17.907555)">
                <g id="Capa_1">
                    <path d="M15.0684191,27.113241 C16.9073379,27.0958357 18.5073503,28.3682463 18.9044656,30.1638588 C19.301581,31.9594714 18.3873526,33.7879283 16.7125933,34.5476035 C15.037834,35.3072788 13.0598981,34.7907152 11.9704711,33.309137 L11.9704711,34.858111 L4.53539589,41.3638019 C4.41745836,41.5095956 4.37189573,41.7009587 4.41147797,41.8842571 C4.50573542,42.1113844 4.71315744,42.271665 4.95671682,42.3055781 L14.7710161,41.6240295 L16.0101953,42.7145072 C15.7860324,41.0599862 16.6424084,39.4468782 18.1384676,38.7055985 C19.6345268,37.9643189 21.4367468,38.2601241 22.6173586,39.440736 C23.7979705,40.6213478 24.0937757,42.4235677 23.352496,43.919627 C22.6112164,45.4156862 20.9981084,46.2720622 19.3435874,46.0478993 L20.4340651,47.138377 L19.7401247,57.0518106 C19.760051,57.2401735 19.8650434,57.4090744 20.025136,57.5103069 C20.2010993,57.5922444 20.4033371,57.5967386 20.5827666,57.5226987 L27.0388903,50.0876235 L28.6498232,50.0132727 C27.320054,49.0026157 26.7836292,47.2560345 27.3168623,45.6731965 C27.8500955,44.0903585 29.3340201,43.0244011 31.0042637,43.0244011 C32.6745073,43.0244011 34.158432,44.0903585 34.6916651,45.6731965 C35.2248982,47.2560345 34.6884734,49.0026157 33.3587042,50.0132727 L34.9076782,50.0132727 L41.4257608,57.4483479 C41.5715546,57.5662855 41.7629176,57.6118481 41.9462161,57.5722659 C42.174954,57.4801248 42.3360782,57.2716111 42.367537,57.027027 L41.6859885,47.2251195 L42.7764662,45.9859403 C41.1219452,46.2101032 39.5088371,45.3537272 38.7675575,43.857668 C38.0262779,42.3616088 38.3220831,40.5593889 39.5026949,39.378777 C40.6833068,38.1981652 42.4855267,37.9023599 43.9815859,38.6436396 C45.4776451,39.3849192 46.3340211,40.9980273 46.1098582,42.6525482 L47.2003359,41.5620705 L57.1137696,42.2560109 C57.2998984,42.238946 57.4683772,42.1387694 57.5722659,41.9833915 C57.6683497,41.7571858 57.6352058,41.4967692 57.4855233,41.3018429 L50.0504481,34.8457192 L49.9760973,33.2347863 C48.9654404,34.5645555 47.2188592,35.1009803 45.6360212,34.5677472 C44.0531831,34.034514 42.9872258,32.5505894 42.9872258,30.8803458 C42.9872258,29.2101022 44.0531831,27.7261775 45.6360212,27.1929444 C47.2188592,26.6597113 48.9654404,27.1961361 49.9760973,28.5259053 L49.9760973,27.0388903 L57.4111726,20.5331994 C57.5291101,20.3874057 57.5746727,20.1960426 57.5350905,20.0127442 C57.4429494,19.7840063 57.2344357,19.622882 56.9898516,19.5914232 L47.2251195,20.2729718 L45.9859403,19.1948859 C46.2101032,20.8494069 45.3537272,22.4625149 43.857668,23.2037945 C42.3616088,23.9450742 40.5593889,23.649269 39.378777,22.4686571 C38.1981652,21.2880453 37.9023599,19.4858253 38.6436396,17.9897661 C39.3849192,16.4937069 40.9980273,15.6373309 42.6525482,15.8614938 L41.5496787,14.7710161 L42.2436191,4.85758248 C42.2219568,4.66982032 42.1173934,4.5016096 41.9586079,4.39908618 C41.7320471,4.30561798 41.4729846,4.33858957 41.2770593,4.48582872 L34.8209357,11.920904 L33.2100027,11.9952547 C34.5397719,13.0059117 35.0761967,14.7524929 34.5429636,16.3353309 C34.0097305,17.9181689 32.5258058,18.9841263 30.8555622,18.9841263 C29.1853186,18.9841263 27.701394,17.9181689 27.1681608,16.3353309 C26.6349277,14.7524929 27.1713525,13.0059117 28.5011217,11.9952547 L27.0388903,11.9952547 L20.5208076,4.56017947 C20.3805493,4.40384923 20.1706442,4.32921629 19.963177,4.3619108 C19.7360497,4.45616826 19.5757691,4.66359027 19.5418561,4.90714965 L20.2234046,14.7090572 L19.1329269,15.9482364 C20.7874479,15.7240735 22.4005559,16.5804494 23.1418356,18.0765087 C23.8831152,19.5725679 23.58731,21.3747878 22.4066981,22.5553997 C21.2260863,23.7360115 19.4238664,24.0318167 17.9278072,23.2905371 C16.4317479,22.5492574 15.5753719,20.9361494 15.7995349,19.2816284 L14.7462325,20.3473225 L4.8327989,19.6533822 C4.64503674,19.6750445 4.47682602,19.7796079 4.37430259,19.9383934 C4.27821871,20.1645991 4.31136264,20.4250157 4.46104514,20.619942 L11.8961204,27.0636738 L11.9704711,28.6746068 C12.7062815,27.7064663 13.8523957,27.1379936 15.0684191,27.1380246 L15.0684191,27.113241 Z M1.37548892,40.5335518 L7.85639616,34.9076782 L0,34.9076782 L0,27.0388903 L7.80682899,27.0388903 L1.37548892,21.4749756 L3.2714331,16.8404454 L11.8341614,17.4352514 L6.33220574,11.9085122 L11.8961204,6.34459753 L17.3856842,11.8217696 L16.7908782,3.35817565 L21.4130167,1.41266429 L27.0388903,7.89357154 L27.0388903,0 L34.9076782,0 L34.9076782,7.81922078 L40.4839846,1.41266429 L45.1185149,3.30860848 L44.5237088,11.8713368 L50.0504481,6.34459753 L55.6143627,11.9085122 L50.1371906,17.3856842 L58.6007846,16.7908782 L60.546296,21.4130167 L54.0653887,27.0388903 L61.8846095,27.0388903 L61.8846095,34.9076782 L54.1397395,34.9076782 L60.546296,40.4839846 L58.6503518,45.1309066 L50.0876235,44.5361006 L55.6019709,50.0504481 L50.0380563,55.6143627 L44.573276,50.0876235 L45.168082,58.5512174 L40.5459436,60.4967288 L34.92007,54.0158215 L34.92007,61.8350423 L27.0388903,61.8350423 L27.0388903,54.0777805 L21.4625838,60.484337 L16.8156618,58.5883928 L17.4228596,50.0876235 L11.8837286,55.6267545 L6.33220574,50.0876235 L11.8217696,44.5980596 L3.34578385,45.1928656 L1.37548892,40.5335518 Z" id="Shape"></path>
                    <path d="M75.8873345,21.5865018 C75.8873345,21.8962966 75.9864689,22.0449981 76.395398,22.0449981 C77.0718603,22.1447755 77.7214573,21.7413966 77.9319802,21.0908301 C78.1426407,20.5331994 78.0558981,20.3968897 78.3285175,20.3968897 C78.4152601,20.3968897 78.5020026,20.4712405 78.5020026,20.7686435 C78.5020026,21.0660465 78.4400437,21.3386659 78.4400437,22.3176175 C78.4400437,23.2965691 78.5020026,23.4824459 78.5020026,23.7798489 C78.5020026,24.077252 78.4400437,24.1763863 78.2789504,24.1763863 C78.1178571,24.1763863 78.0682899,23.9905094 77.882413,23.4824459 C77.734187,22.8389769 77.1074267,22.42477 76.4573569,22.5406697 C76.036036,22.5406697 75.8997263,22.5406697 75.8997263,22.7885056 L75.8997263,26.5060432 C75.8722001,26.7699041 75.952942,27.0336385 76.1234666,27.2368665 C76.2939912,27.4400944 76.5396954,27.5654122 76.8043271,27.5841291 C77.2752152,27.6832634 77.5230511,27.5841291 77.5230511,27.8691403 C77.5240405,27.9320918 77.4968217,27.9921861 77.4488505,28.0329616 C77.4008794,28.0737371 77.337185,28.090919 77.2752152,28.0798008 C76.8415025,28.0798008 76.1971293,28.00545 75.2181777,28.00545 C74.2392262,28.00545 73.3965843,28.0798008 73.235491,28.0798008 C73.0743977,28.0798008 72.9752634,28.0798008 72.9752634,27.8691403 C72.9752634,27.6584799 73.1115731,27.6584799 73.6196366,27.5841291 C73.7836922,27.5979076 73.9449043,27.5350777 74.0563703,27.413919 C74.1678363,27.2927604 74.2170373,27.1268802 74.189659,26.9645395 L74.189659,18.3274604 C74.227133,18.0941869 74.147566,17.8573947 73.9768315,17.6940834 C73.8060969,17.5307721 73.566004,17.4618026 73.3346254,17.5096022 C73.0248306,17.5096022 72.9752634,17.4104678 72.9752634,17.2617663 C72.9752634,17.1130648 73.0372223,17.0139305 73.4213679,17.0139305 C74.0657411,17.0139305 74.4003195,17.0882812 76.0484278,17.0882812 C77.6965362,17.0882812 78.601137,17.0139305 79.2083348,17.0139305 C79.2787041,17.0049575 79.3491456,17.0299924 79.3980691,17.081362 C79.4469926,17.1327317 79.4685636,17.2043099 79.4561706,17.2741581 L79.4561706,19.5542479 C79.4667636,19.6187161 79.4500928,19.6846873 79.4101453,19.7363841 C79.3701978,19.7880809 79.3105656,19.8208546 79.2455102,19.8268673 C78.9604989,19.8268673 79.0224579,19.5666396 78.8613646,19.1329269 C78.6838083,18.0679384 77.6867494,17.3408015 76.6184502,17.4972104 C76.0608196,17.4972104 75.8873345,17.5963447 75.8873345,18.1168 L75.8873345,21.5865018 L75.8873345,21.5865018 Z" id="Shape"></path>
                    <path d="M86.1601301,26.7167037 C86.1529132,26.8535356 86.2041195,26.9869993 86.3010087,27.0838885 C86.397898,27.1807778 86.5313617,27.2319841 86.6681936,27.2247671 C86.8329679,27.2042472 86.9967387,27.2697555 87.1019063,27.3982522 C87.1019063,27.5717373 86.9655966,27.5345619 86.5690593,27.6584799 C86.1361045,27.7745372 85.7196943,27.9452653 85.3298801,28.1665433 C85.2524548,28.2182072 85.162591,28.2481618 85.0696524,28.2532859 C84.9333427,28.2532859 84.9333427,28.0798008 84.9333427,27.9063157 L84.9333427,27.2123753 C84.9333427,27.051282 84.858992,27.0017149 84.797033,27.0017149 C84.2233518,27.6273143 83.4702091,28.0601549 82.6408612,28.2408941 C81.4760327,28.2408941 80.744917,27.5593455 80.744917,25.9979797 L80.744917,21.0536547 C80.7563737,20.8832245 80.6872977,20.717275 80.5582952,20.6053105 C80.4292926,20.493346 80.2552745,20.4483082 80.088152,20.4836323 C79.9022751,20.4836323 79.7040065,20.4836323 79.7040065,20.26058 C79.7030794,20.19438 79.7316087,20.1311892 79.7818764,20.0881026 C79.832144,20.0450161 79.8989548,20.0264868 79.9642341,20.0375277 L81.9221372,20.0375277 C82.1451895,20.0375277 82.1947567,20.1242703 82.1947567,20.3473225 L82.1947567,25.86167 C82.1278787,26.226865 82.2282682,26.6028055 82.4683012,26.8860443 C82.7083341,27.1692831 83.0627174,27.3299746 83.4339359,27.3239015 C83.8074909,27.3241441 84.1650786,27.1724427 84.4245063,26.9036663 C84.6839339,26.6348899 84.8228863,26.2721579 84.8094248,25.8988454 L84.8094248,21.0660465 C84.8208815,20.8956163 84.7518055,20.7296668 84.622803,20.6177023 C84.4938004,20.5057378 84.3197823,20.4607 84.1526598,20.4960241 C83.9667829,20.4960241 83.7685143,20.4960241 83.7685143,20.2729718 C83.7675872,20.2067718 83.7961165,20.143581 83.8463842,20.1004944 C83.8966518,20.0574078 83.9634626,20.0388786 84.0287419,20.0499195 L85.9618615,20.0499195 C86.1849137,20.0499195 86.2344809,20.1366621 86.2344809,20.3597143 L86.2344809,26.7167037 L86.1601301,26.7167037 Z" id="Shape"></path>
                    <path d="M92.4551605,22.1193488 C92.5429051,21.7835502 92.4711284,21.4260527 92.2605683,21.1501464 C92.0500082,20.87424 91.724125,20.7106659 91.3770746,20.7066845 C90.6411255,20.7528441 90.0270524,21.2857175 89.8776677,22.0078227 L89.8776677,26.8406216 C89.8456374,27.020297 89.8883863,27.2052593 89.9960104,27.3526576 C90.1036345,27.5000558 90.2667944,27.5970989 90.4476902,27.6213045 C90.7946604,27.7204388 90.8442275,27.7823978 90.8442275,27.8691403 C90.8454678,27.9223821 90.8221853,27.9732435 90.7810752,28.0070989 C90.7399651,28.0409543 90.685583,28.0540519 90.6335671,28.0426254 C90.2989887,28.0426254 89.8404924,27.9682747 89.1217684,27.9682747 C88.4030445,27.9682747 88.0312907,28.0426254 87.7462795,28.0426254 C87.4612683,28.0426254 87.4736601,28.0426254 87.4736601,27.8567485 C87.4736601,27.6708716 87.6099698,27.6460881 87.8454138,27.5965209 C88.044603,27.5923952 88.2306818,27.496362 88.3494439,27.3363967 C88.4682061,27.1764315 88.5062937,26.970526 88.4526117,26.7786626 L88.4526117,21.9086883 C88.4526117,21.3882331 88.3658691,21.3386659 88.0932497,21.2519234 C87.8206303,21.1651808 87.5727944,21.2519234 87.5727944,21.0660465 C87.5727944,20.8801696 87.9197646,20.855386 88.6384885,20.4712405 C89.6298319,19.9383934 89.5306976,19.7401247 89.7537498,19.7401247 C89.9768021,19.7401247 89.8900595,19.8144755 89.8900595,20.025136 L89.8900595,21.2643152 L89.8900595,21.2643152 C90.3033442,20.4913712 91.0748919,19.9754567 91.947097,19.8888262 C92.5139565,19.8595209 93.0627928,20.0925756 93.4353705,20.5207979 C93.8079481,20.9490202 93.9628562,21.5248148 93.855433,22.0821734 L93.855433,27.0388903 C93.837761,27.2004829 93.8899206,27.3619333 93.9987956,27.4826425 C94.1076705,27.6033516 94.2629022,27.6718351 94.4254554,27.6708716 C94.7724256,27.7452224 94.8219928,27.8071814 94.8219928,27.9558829 C94.7923625,28.0508393 94.6969578,28.1091422 94.5989405,28.0921926 C94.38828,28.0921926 93.9917427,28.0178418 93.0995337,28.0178418 C92.6782127,28.0178418 92.2445,28.0921926 91.8603545,28.0921926 C91.649694,28.0921926 91.5505597,28.0921926 91.5505597,27.9187075 C91.5505597,27.7452224 91.5505597,27.7452224 91.8479627,27.6708716 C92.3684179,27.5097784 92.4551605,27.4230358 92.4551605,27.0388903 L92.4551605,22.1193488 L92.4551605,22.1193488 Z" id="Shape"></path>
                    <path d="M100.261989,22.1441324 C100.261989,21.0784383 99.7911014,20.2481882 98.9608513,20.2481882 C98.1306012,20.2481882 97.1516497,21.3634495 97.1516497,23.9657258 C97.1516497,26.2086402 97.9323326,27.3610768 98.8493252,27.3610768 C99.2790372,27.3699341 99.6894089,27.18268 99.964325,26.8522983 C100.239241,26.5219167 100.348795,26.0843474 100.261989,25.6634013 L100.261989,22.1441324 L100.261989,22.1441324 Z M101.687046,26.9645395 C101.687046,27.1380246 101.687046,27.2495507 101.897706,27.2495507 C102.108366,27.2495507 102.232284,26.5556104 102.492512,26.5556104 C102.535312,26.5485062 102.579168,26.5589662 102.614155,26.5846229 C102.649141,26.6102796 102.6723,26.6489638 102.678389,26.6919201 L102.678389,27.2495507 C102.678389,27.5221701 102.430553,27.5593455 101.773788,27.8939239 C101.386383,28.1260912 100.969614,28.3053014 100.534609,28.426771 C100.237206,28.426771 100.447866,27.3486851 100.200031,27.3486851 C99.6010555,27.8491769 98.8688107,28.1636114 98.0934259,28.2532859 C96.7427205,28.2532859 95.5159331,26.7290955 95.5159331,24.3994385 C95.5159331,21.7847704 96.9285974,19.8392591 98.7130155,19.8392591 C99.1864678,19.8844148 99.6502818,20.0014129 100.088504,20.1862292 C100.175247,20.1862292 100.224814,20.1862292 100.224814,19.7525165 L100.224814,17.7822216 C100.224814,17.2989417 100.224814,16.9519715 99.753926,16.9024044 C99.5498878,16.9303846 99.3522289,16.8188848 99.2706461,16.6297849 C99.2706461,16.4686916 99.394564,16.4439081 99.6300081,16.3695573 C100.279538,16.1806114 100.9101,15.9317051 101.51356,15.6260498 C101.612695,15.6260498 101.64987,15.6260498 101.64987,15.8738856 L101.64987,26.9273641 L101.687046,26.9645395 Z" id="Shape"></path>
                    <path d="M106.916382,23.8418079 C106.916382,23.6311474 106.916382,23.5939721 106.742897,23.5939721 C105.781999,24.1575412 105.099436,25.0960653 104.859344,26.1838566 C104.827918,26.4155053 104.894136,26.6497989 105.042169,26.8307274 C105.190201,27.011656 105.406743,27.1229576 105.640027,27.1380246 C106.457886,27.1380246 106.879206,26.5060432 106.879206,24.9446774 L106.879206,23.8294161 L106.916382,23.8418079 Z M108.341438,26.2458156 C108.341438,26.9397559 108.651233,27.1504164 108.91146,27.1504164 C109.159521,26.9864 109.39183,26.7997231 109.605401,26.5927857 C109.704535,26.5927857 109.766494,26.6671365 109.766494,26.8034462 C109.634811,27.5549447 109.014688,28.124238 108.254695,28.1913269 C107.139434,28.1913269 107.015516,26.9521477 106.817247,26.9521477 C106.618979,26.9521477 106.086132,28.302853 104.735426,28.302853 C104.327285,28.3445865 103.922551,28.1968093 103.637321,27.9019107 C103.352092,27.6070122 103.217884,27.1975785 103.273195,26.7910544 C103.273195,24.8827184 106.928774,23.655931 106.928774,22.5654533 L106.928774,21.0164793 C106.951038,20.8132807 106.882579,20.6106024 106.741663,20.4625212 C106.600747,20.31444 106.40171,20.2360214 106.197658,20.2481882 C105.434055,20.3130777 104.850098,20.9565125 104.859344,21.7228115 C104.886682,22.0314502 104.787217,22.3379215 104.583844,22.5716835 C104.380471,22.8054456 104.090711,22.9463595 103.781258,22.9619907 C103.617903,22.9886049 103.451301,22.9395781 103.328399,22.828725 C103.205497,22.717872 103.1396,22.5571945 103.149277,22.3919682 C103.646294,20.885171 105.044853,19.8598926 106.631371,19.8392591 C107.994468,19.8392591 108.35383,20.0870949 108.35383,21.0784383 L108.35383,26.2953827 L108.341438,26.2458156 Z" id="Shape"></path>
                    <path d="M113.892961,27.3858604 C115.392368,27.3858604 115.491502,25.9608043 115.838472,25.9608043 C115.937606,25.9608043 116.024349,26.0351551 116.024349,26.2705991 C115.715324,27.5042519 114.567005,28.339393 113.298155,28.2532859 C111.352643,28.2532859 110.026722,26.518435 110.026722,23.9037669 C109.930141,22.8762466 110.265053,21.8548198 110.951292,21.0839754 C111.637532,20.3131311 112.613332,19.8622514 113.645125,19.8392591 C114.252359,19.8296834 114.855214,19.9435092 115.417151,20.1738375 C115.664987,20.3101472 115.702162,20.3597143 115.702162,21.1156137 C115.702162,22.3547929 115.702162,22.3547929 115.318017,22.3547929 C114.933871,22.3547929 114.896696,22.2308749 114.636468,21.747595 C114.004487,20.5951584 113.917744,20.2357964 113.397289,20.2357964 C112.579431,20.2357964 111.575696,21.4749756 111.575696,23.4700541 C111.575696,25.4651327 112.554647,27.3610768 113.831002,27.3610768" id="Shape"></path>
                    <path d="M118.230088,16.9147961 C118.640245,16.836509 119.055486,17.0236236 119.268541,17.3827412 C119.481596,17.7418588 119.446783,18.1959783 119.181479,18.5184247 C118.916175,18.8408711 118.477266,18.9625063 118.083834,18.8226157 C117.690402,18.6827252 117.426806,18.3113039 117.424621,17.8937477 C117.39695,17.656199 117.467173,17.417621 117.619124,17.2329426 C117.771074,17.0482642 117.991658,16.9334001 118.230088,16.9147961 L118.230088,16.9147961 Z M118.911637,26.8282298 C118.864527,27.0218227 118.911469,27.2262955 119.038299,27.3799559 C119.16513,27.5336163 119.356997,27.6184689 119.55601,27.6089127 C119.853413,27.6089127 119.952547,27.7328306 119.952547,27.8195732 C119.952547,27.9063157 119.952547,28.0302336 119.655144,28.0302336 C119.357741,28.0302336 118.874461,27.9558829 118.155737,27.9558829 C117.437013,27.9558829 116.854599,28.0302336 116.569588,28.0302336 C116.284577,28.0302336 116.296968,28.0302336 116.296968,27.8443567 C116.352477,27.6924447 116.494683,27.5894681 116.65633,27.5841291 C117.337879,27.3982522 117.474189,27.3610768 117.474189,26.7662708 L117.474189,21.7352033 C117.474189,21.2643152 117.213961,21.2519234 116.866991,21.1775726 C116.520021,21.1032219 116.532412,21.1775726 116.532412,20.9545204 C116.532412,20.7314681 116.65633,20.7438599 116.866991,20.6942927 C117.539043,20.5188801 118.176098,20.2296905 118.750543,19.8392591 C118.849678,19.8392591 118.911637,19.8392591 118.911637,20.0870949 L118.911637,26.8530134 L118.911637,26.8282298 Z" id="Shape"></path>
                    <path d="M122.815051,18.9346583 L124.847305,16.6297849 C125.053009,16.2698637 125.415212,16.0268666 125.826256,15.97302 C126.010732,15.9509632 126.195568,16.0111971 126.331628,16.1377094 C126.467689,16.2642216 126.541188,16.4441945 126.532589,16.6297849 C126.501016,16.9255665 126.317988,17.1836825 126.049309,17.3113335 L123.57095,18.9842254 L122.815051,18.9842254 L122.815051,18.9346583 Z M125.751906,24.0524684 C125.751906,22.4415354 125.144708,20.26058 124.017055,20.26058 C122.889402,20.26058 122.282204,22.4291436 122.282204,24.0524684 C122.282204,25.6757931 122.815051,27.7823978 123.992271,27.7823978 C125.169491,27.7823978 125.727122,25.6138342 125.727122,23.9905094 L125.751906,24.0524684 Z M123.992271,28.1913269 C122.059152,28.1913269 120.658879,26.2334238 120.658879,23.9905094 C120.658879,21.747595 122.071543,19.7773001 123.992271,19.7773001 C125.912999,19.7773001 127.325663,21.747595 127.325663,23.9905094 C127.325663,26.2334238 125.912999,28.1913269 123.992271,28.1913269 L123.992271,28.1913269 Z" id="Shape"></path>
                    <path d="M132.988712,22.1193488 C133.076457,21.7835502 133.00468,21.4260527 132.79412,21.1501464 C132.58356,20.87424 132.257677,20.7106659 131.910626,20.7066845 C131.174677,20.7528441 130.560604,21.2857175 130.41122,22.0078227 L130.41122,26.8406216 C130.379189,27.020297 130.421938,27.2052593 130.529562,27.3526576 C130.637186,27.5000558 130.800346,27.5970989 130.981242,27.6213045 C131.328212,27.7204388 131.377779,27.7823978 131.377779,27.8691403 C131.37902,27.9223821 131.355737,27.9732435 131.314627,28.0070989 C131.273517,28.0409543 131.219135,28.0540519 131.167119,28.0426254 C130.83254,28.0426254 130.374044,27.9682747 129.65532,27.9682747 C128.936596,27.9682747 128.564843,28.0426254 128.279831,28.0426254 C127.99482,28.0426254 128.007212,28.0426254 128.007212,27.8567485 C128.007212,27.6708716 128.143522,27.6460881 128.366574,27.5965209 C128.565763,27.5923952 128.751842,27.496362 128.870604,27.3363967 C128.989366,27.1764315 129.027454,26.970526 128.973772,26.7786626 L128.973772,21.9086883 C128.973772,21.3882331 128.887029,21.3386659 128.61441,21.2519234 C128.34179,21.1651808 128.093954,21.2519234 128.093954,21.0660465 C128.093954,20.8801696 128.440925,20.855386 129.159649,20.4712405 C130.150992,19.9383934 130.051858,19.7401247 130.27491,19.7401247 C130.497962,19.7401247 130.41122,19.8144755 130.41122,20.025136 L130.41122,21.2643152 L130.41122,21.2643152 C130.822114,20.4947752 131.588212,19.9794004 132.455865,19.8888262 C133.022725,19.8595209 133.571561,20.0925756 133.944139,20.5207979 C134.316716,20.9490202 134.471624,21.5248148 134.364201,22.0821734 L134.364201,27.0388903 C134.346529,27.2004829 134.398689,27.3619333 134.507564,27.4826425 C134.616439,27.6033516 134.77167,27.6718351 134.934224,27.6708716 C135.281194,27.7452224 135.330761,27.8071814 135.330761,27.9558829 C135.301131,28.0508393 135.205726,28.1091422 135.107709,28.0921926 C134.897048,28.0921926 134.500511,28.0178418 133.608302,28.0178418 C133.186981,28.0178418 132.753268,28.0921926 132.369123,28.0921926 C132.158462,28.0921926 132.059328,28.0921926 132.059328,27.9187075 C132.059328,27.7452224 132.059328,27.7452224 132.356731,27.6708716 C132.877186,27.5097784 132.963929,27.4230358 132.963929,27.0388903 L132.963929,22.1193488 L132.988712,22.1193488 Z" id="Shape"></path>
                    <path d="M78.7498385,33.9782938 C78.7498385,34.2261296 78.6630959,34.325264 78.4648273,34.325264 C78.2665586,34.325264 78.2045996,33.9782938 77.6965362,32.7391146 C77.5576336,32.0622788 76.9495322,31.5852337 76.2590883,31.6114615 C75.8133609,31.624977 75.3942925,31.826953 75.1060342,32.1671922 C74.817776,32.5074315 74.6873931,32.9539882 74.7472896,33.3958796 C74.7472896,34.4243983 75.1314352,34.6350588 76.8662861,35.874238 C78.2045996,36.8531896 79.3446445,37.720615 79.3446445,39.3191562 C79.3350609,40.2697245 78.9274239,41.1727418 78.2208361,41.8086708 C77.5142484,42.4445998 76.5734294,42.7551928 75.6271069,42.66494 C74.7596814,42.66494 73.2602746,42.3179699 73.2602746,41.6735967 C73.2602746,39.0589285 73.3718007,38.9474024 73.6568119,38.9474024 C73.9418232,38.9474024 73.8426888,39.331548 74.3383605,40.583119 C74.5394218,41.4864269 75.3221298,42.1420718 76.2466965,42.1816601 C76.7499742,42.1865834 77.2322456,41.9802001 77.5761608,41.612729 C77.9200761,41.2452579 78.0941037,40.7503902 78.0558981,40.2485406 C78.0558981,37.1753762 73.3965843,37.5595217 73.3965843,34.0526446 C73.4287561,33.2833566 73.7655681,32.5584496 74.3327614,32.0377475 C74.8999547,31.5170454 75.6509537,31.2433064 76.4201816,31.2768831 C77.1965116,31.2046718 77.9775872,31.350587 78.6754877,31.6982041 C78.7567577,31.8543417 78.7870913,32.03201 78.7622303,32.2062675 L78.7622303,33.9782938 L78.7498385,33.9782938 Z" id="Shape"></path>
                    <path d="M83.7561225,38.2658539 C83.7561225,38.0551934 83.7561225,38.018018 83.5826374,38.018018 C82.6207039,38.5804431 81.9377693,39.5194782 81.699085,40.6079025 C81.6676587,40.8395513 81.7338768,41.0738448 81.8819092,41.2547734 C82.0299416,41.4357019 82.2464832,41.5470035 82.4797679,41.5620705 C83.2976262,41.5620705 83.7189471,40.9424809 83.7189471,39.3687233 L83.7189471,38.2534621 L83.7561225,38.2658539 Z M85.1811786,40.6698615 C85.1811786,41.3638019 85.4909734,41.5744623 85.751201,41.5744623 C85.999054,41.4101616 86.2313377,41.223505 86.4451413,41.0168317 C86.5442757,41.0168317 86.6062346,41.0911824 86.6062346,41.2274922 C86.4745521,41.9789906 85.854429,42.548284 85.094436,42.6153729 C83.9791747,42.6153729 83.8552568,41.3761937 83.6445963,41.3761937 C83.4339359,41.3761937 82.9134806,42.726899 81.5627753,42.726899 C81.1546338,42.7686325 80.7498999,42.6208552 80.4646701,42.3259567 C80.1794404,42.0310581 80.0452326,41.6216244 80.1005438,41.2151004 C80.1005438,39.3067644 83.7561225,38.079977 83.7561225,36.9894993 L83.7561225,35.4900924 C83.7783865,35.2868938 83.7099277,35.0842156 83.5690117,34.9361343 C83.4280957,34.7880531 83.229059,34.7096345 83.0250067,34.7218013 C82.2614042,34.7866909 81.6774465,35.4301256 81.6866932,36.1964246 C81.714031,36.5050634 81.6145663,36.8115346 81.4111933,37.0452966 C81.2078203,37.2790587 80.9180599,37.4199726 80.6086073,37.4356038 C80.4452517,37.462218 80.2786503,37.4131912 80.155748,37.3023381 C80.0328458,37.1914851 79.9669489,37.0308076 79.9766259,36.8655813 C80.4736426,35.3587841 81.8722019,34.3335057 83.4587195,34.3128722 C84.8094248,34.3128722 85.1811786,34.560708 85.1811786,35.5520514 L85.1811786,40.7689958 L85.1811786,40.6698615 Z" id="Shape"></path>
                    <path d="M91.5009925,36.5433948 C91.5887371,36.2075961 91.5169604,35.8500986 91.3064003,35.5741923 C91.0958402,35.298286 90.769957,35.1347118 90.4229066,35.1307305 C89.6869575,35.1768901 89.0728844,35.7097634 88.9234998,36.4318686 L88.9234998,41.2646675 C88.8914695,41.4443429 88.9342183,41.6293053 89.0418424,41.7767035 C89.1494665,41.9241017 89.3126264,42.0211448 89.4935222,42.0453504 C89.8404924,42.1444848 89.8900595,42.2064437 89.8900595,42.2931863 C89.8912998,42.346428 89.8680173,42.3972895 89.8269072,42.4311449 C89.7857971,42.4650002 89.731415,42.4780978 89.6793991,42.4666714 C89.3448207,42.4666714 88.8863244,42.3923206 88.1676004,42.3923206 C87.4488765,42.3923206 87.0771227,42.4666714 86.7921115,42.4666714 C86.5071003,42.4666714 86.5194921,42.4666714 86.5194921,42.2807945 C86.5194921,42.0949176 86.6558018,42.070134 86.8912459,42.0205668 C87.090435,42.0164411 87.2765139,41.920408 87.395276,41.7604427 C87.5140381,41.6004774 87.5521257,41.394572 87.4984437,41.2027086 L87.4984437,36.3327343 C87.4984437,35.812279 87.4117011,35.7627119 87.1390817,35.6759693 C86.8664623,35.5892268 86.6186264,35.6759693 86.6186264,35.4900924 C86.6186264,35.3042156 86.9655966,35.279432 87.6843205,34.8952864 C88.6756639,34.3624394 88.5765296,34.1641707 88.7995818,34.1641707 C89.0226341,34.1641707 88.9358915,34.2385214 88.9358915,34.4491819 L88.9358915,35.6883611 L88.9358915,35.6883611 C89.3491762,34.9154171 90.1207239,34.3995027 90.992929,34.3128722 C91.5597885,34.2835669 92.1086249,34.5166215 92.4812025,34.9448439 C92.8537801,35.3730662 93.0086882,35.9488607 92.901265,36.5062194 L92.901265,41.4629362 C92.883593,41.6245288 92.9357526,41.7859792 93.0446276,41.9066884 C93.1535026,42.0273976 93.3087342,42.095881 93.4712874,42.0949176 C93.8182576,42.1692683 93.8678248,42.2312273 93.8678248,42.367537 C93.8381945,42.4624935 93.7427899,42.5207963 93.6447725,42.5038467 C93.4341121,42.5038467 93.0375747,42.429496 92.1453657,42.429496 C91.7240448,42.429496 91.290332,42.5038467 90.9061865,42.5038467 C90.695526,42.5038467 90.5963917,42.5038467 90.5963917,42.3303616 C90.5963917,42.1568766 90.5963917,42.1568766 90.8937947,42.0825258 C91.41425,41.9214325 91.5009925,41.83469 91.5009925,41.4505444 L91.5009925,36.5681783 L91.5009925,36.5433948 Z" id="Shape"></path>
                    <path d="M96.4701011,34.5483162 L97.5853624,34.5483162 C97.7588475,34.5483162 97.7960229,34.622667 97.7960229,34.8457192 C97.7960229,35.0687715 97.7960229,35.1431223 97.5853624,35.1431223 L96.5568437,35.1431223 C96.5069812,35.1494028 96.4697071,35.1920017 96.4701011,35.2422566 L96.4701011,40.583119 C96.4701011,41.3514101 96.6435862,41.6488131 96.9905564,41.6488131 C97.3375266,41.6488131 97.6349296,40.818563 97.8703736,40.818563 C98.1058177,40.818563 98.0314669,40.8929138 98.0314669,41.0416153 C97.8904629,41.8957477 97.2147167,42.5614828 96.358575,42.6897236 C95.3300562,42.6897236 95.0326532,41.7479474 95.0326532,40.6079025 L95.0326532,35.4281335 C95.0326532,35.217473 95.0326532,35.155514 94.8467764,35.155514 L94.3758883,35.155514 C94.214795,35.155514 94.2024032,35.155514 94.2024032,34.9944207 C94.4620455,34.6270103 94.7801942,34.3046754 95.1441794,34.0402528 C96.0239966,33.0860848 95.9744294,32.3425773 96.296616,32.3425773 C96.4120259,32.3728339 96.4865603,32.4846355 96.4701011,32.6028049 L96.4701011,34.560708 L96.4701011,34.5483162 Z" id="Shape"></path>
                    <path d="M102.108366,38.2658539 C102.108366,38.0551934 102.108366,38.018018 101.934881,38.018018 C100.972948,38.5804431 100.290013,39.5194782 100.051329,40.6079025 C100.019903,40.8395513 100.086121,41.0738448 100.234153,41.2547734 C100.382186,41.4357019 100.598727,41.5470035 100.832012,41.5620705 C101.64987,41.5620705 102.071191,40.9424809 102.071191,39.3687233 L102.071191,38.2534621 L102.108366,38.2658539 Z M103.533423,40.6698615 C103.533423,41.3638019 103.843217,41.5744623 104.103445,41.5744623 C104.351548,41.4105037 104.583862,41.2238227 104.797385,41.0168317 C104.89652,41.0168317 104.958479,41.0911824 104.958479,41.2274922 C104.826796,41.9789906 104.206673,42.548284 103.44668,42.6153729 C102.331419,42.6153729 102.207501,41.3761937 102.009232,41.3761937 C101.810963,41.3761937 101.278116,42.726899 99.9274111,42.726899 C99.5192696,42.7686325 99.1145357,42.6208552 98.8293059,42.3259567 C98.5440762,42.0310581 98.4098684,41.6216244 98.4651796,41.2151004 C98.4651796,39.3067644 102.120758,38.079977 102.120758,36.9894993 L102.120758,35.4900924 C102.143022,35.2868938 102.074564,35.0842156 101.933648,34.9361343 C101.792731,34.7880531 101.593695,34.7096345 101.389643,34.7218013 C100.62604,34.7866909 100.042082,35.4301256 100.051329,36.1964246 C100.078667,36.5050634 99.9792021,36.8115346 99.7758291,37.0452966 C99.5724561,37.2790587 99.2826957,37.4199726 98.9732431,37.4356038 C98.8098875,37.462218 98.6432861,37.4131912 98.5203839,37.3023381 C98.3974816,37.1914851 98.3315847,37.0308076 98.3412617,36.8655813 C98.8382784,35.3587841 100.236838,34.3335057 101.823355,34.3128722 C103.174061,34.3128722 103.545814,34.560708 103.545814,35.5520514 L103.545814,40.7689958 L103.533423,40.6698615 Z" id="Shape"></path>
                    <path d="M111.662438,35.9733723 C111.662438,36.2831671 111.761573,36.4318686 112.170502,36.4318686 C112.846964,36.531646 113.496561,36.1282672 113.707084,35.4777006 C113.917744,34.92007 113.831002,34.7837603 114.103621,34.7837603 C114.190364,34.7837603 114.277106,34.858111 114.277106,35.155514 C114.277106,35.4529171 114.202756,35.7255365 114.202756,36.7044881 C114.202756,37.6834396 114.277106,37.8693165 114.277106,38.1667195 C114.277106,38.4641225 114.202756,38.5632569 114.054054,38.5632569 C113.905353,38.5632569 113.843394,38.37738 113.657517,37.8693165 C113.509291,37.2258474 112.88253,36.8116406 112.232461,36.9275403 C111.81114,36.9275403 111.67483,36.9275403 111.67483,37.1753762 L111.67483,40.8929138 C111.647304,41.1567746 111.728046,41.4205091 111.89857,41.6237371 C112.069095,41.826965 112.314799,41.9522827 112.579431,41.9709997 C113.050319,42.070134 113.298155,41.9709997 113.298155,42.2560109 C113.299144,42.3189624 113.271925,42.3790567 113.223954,42.4198322 C113.175983,42.4606076 113.112289,42.4777896 113.050319,42.4666714 C112.616606,42.4666714 111.972233,42.3923206 110.993281,42.3923206 C110.01433,42.3923206 109.171688,42.4666714 109.010595,42.4666714 C108.849501,42.4666714 108.750367,42.4666714 108.750367,42.2560109 C108.750367,42.0453504 108.886677,42.0453504 109.39474,41.9709997 C109.558796,41.9847782 109.720008,41.9219483 109.831474,41.8007896 C109.94294,41.6796309 109.992141,41.5137508 109.964763,41.3514101 L109.964763,32.7391146 C110.002237,32.505841 109.92267,32.2690489 109.751935,32.1057376 C109.581201,31.9424263 109.341108,31.8734567 109.109729,31.9212563 C108.799934,31.9212563 108.750367,31.822122 108.750367,31.6734205 C108.750367,31.524719 108.824718,31.4255846 109.208863,31.4255846 C109.853237,31.4255846 110.187815,31.4999354 111.835923,31.4999354 C113.484032,31.4999354 114.388632,31.4255846 114.99583,31.4255846 C115.0662,31.4166116 115.136641,31.4416465 115.185565,31.4930162 C115.234488,31.5443859 115.256059,31.6159641 115.243666,31.6858123 L115.243666,33.9782938 C115.254259,34.042762 115.237588,34.1087332 115.197641,34.16043 C115.157693,34.2121268 115.098061,34.2449006 115.033006,34.2509132 C114.760386,34.2509132 114.809953,33.9906856 114.64886,33.5569729 C114.471304,32.4919843 113.474245,31.7648475 112.405946,31.9212563 C111.848315,31.9212563 111.67483,32.0203907 111.67483,32.5408459 L111.67483,35.9485887 L111.662438,35.9733723 Z" id="Shape"></path>
                    <path d="M119.196648,34.6846259 C117.7592,34.6846259 117.511364,36.9275403 117.511364,37.2745105 C117.511364,37.6214807 117.672457,37.6338725 118.24248,37.6338725 C119.878196,37.6338725 120.349084,37.4108202 120.349084,36.3946933 C120.494175,35.6033167 119.983514,34.8400713 119.196648,34.6722342 L119.196648,34.6846259 Z M117.858334,38.0551934 C117.560931,38.0551934 117.48658,38.0551934 117.48658,38.6623912 C117.48658,40.3352831 118.217696,41.8099064 119.543618,41.8099064 C121.365211,41.8099064 121.266077,40.4220257 121.625439,40.4220257 C121.680788,40.4167057 121.735334,40.4382391 121.772123,40.4799334 C121.808912,40.5216278 121.823486,40.5784299 121.811316,40.6326861 C121.485915,41.8794645 120.335381,42.730757 119.047946,42.6773318 C117.288312,42.6773318 115.888039,41.2398839 115.888039,38.5508651 C115.888039,36.3079507 117.127218,34.263305 119.196648,34.263305 C119.963918,34.2925419 120.684055,34.6411123 121.182975,35.2247543 C121.681894,35.8083963 121.91419,36.573992 121.823708,37.3364694 C121.823708,37.9312755 121.687398,38.0428016 121.303252,38.0428016 L117.858334,38.0428016 L117.858334,38.0551934 Z" id="Shape"></path>
                    <path d="M131.167119,36.5805701 C131.167119,35.514876 130.696231,34.6846259 129.865981,34.6846259 C129.035731,34.6846259 128.056779,35.7998872 128.056779,38.4021636 C128.056779,40.6450779 128.837462,41.7851228 129.766846,41.7851228 C130.199233,41.7948393 130.612245,41.6059522 130.887694,41.2725147 C131.163142,40.9390773 131.270671,40.4978344 131.179511,40.0750555 L131.179511,36.5805701 L131.167119,36.5805701 Z M132.592175,41.4009772 C132.592175,41.5744623 132.592175,41.6859885 132.802835,41.6859885 C133.013496,41.6859885 133.137414,40.9920481 133.397641,40.9920481 C133.440897,40.9808169 133.486911,40.9896354 133.522949,41.0160635 C133.558987,41.0424916 133.581228,41.0837265 133.583518,41.1283578 L133.583518,41.6859885 C133.583518,41.9586079 133.335682,41.9957833 132.678917,42.3303616 C132.291044,42.561614 131.874401,42.7407705 131.439738,42.8632087 C131.142335,42.8632087 131.352996,41.7851228 131.10516,41.7851228 C130.506568,42.2862387 129.774129,42.600757 128.998555,42.6897236 C127.635458,42.6897236 126.421062,41.1655332 126.421062,38.8358763 C126.421062,36.2212082 127.833727,34.2756968 129.618145,34.2756968 C130.091597,34.3208526 130.555411,34.4378507 130.993634,34.622667 C131.080376,34.622667 131.129943,34.622667 131.129943,34.1889543 L131.129943,32.2310511 C131.129943,31.7477712 131.129943,31.4008011 130.659055,31.3388421 C130.466877,31.3751797 130.272805,31.2856083 130.175775,31.1157898 C130.175775,30.9546965 130.299693,30.929913 130.535137,30.8555622 C131.184236,30.6653567 131.814685,30.4164953 132.41869,30.1120547 C132.517824,30.1120547 132.555,30.1120547 132.555,30.3598905 L132.555,41.413369 L132.592175,41.4009772 Z" id="Shape"></path>
                    <path d="M137.5365,34.6846259 C136.08666,34.6846259 135.851216,36.9275403 135.851216,37.2745105 C135.851216,37.6214807 136.01231,37.6338725 136.582332,37.6338725 C138.218049,37.6338725 138.688937,37.4108202 138.688937,36.3946933 C138.834755,35.6072209 138.330736,34.8457144 137.548892,34.6722342 L137.5365,34.6846259 Z M136.161011,38.0428016 C135.863608,38.0428016 135.801649,38.0428016 135.801649,38.6499994 C135.801649,40.3228913 136.532765,41.7975146 137.846295,41.7975146 C139.667888,41.7975146 139.568754,40.4096339 139.928116,40.4096339 C139.983465,40.4043139 140.038011,40.4258473 140.0748,40.4675416 C140.111589,40.509236 140.126163,40.5660381 140.113993,40.6202943 C139.788592,41.8670728 138.638058,42.7183652 137.350623,42.66494 C135.590989,42.66494 134.190716,41.2274922 134.190716,38.5384733 C134.190716,36.2955589 135.429895,34.2509132 137.499325,34.2509132 C138.266595,34.2801501 138.986732,34.6287205 139.485652,35.2123625 C139.984571,35.7960045 140.216867,36.5616002 140.126385,37.3240777 C140.126385,37.9188837 139.990075,38.0304098 139.605929,38.0304098 L136.161011,38.0304098 L136.161011,38.0428016 Z" id="Shape"></path>
                    <path d="M147.338407,40.6946451 C147.308047,41.0591016 147.450618,41.416658 147.723421,41.6602325 C147.996225,41.9038071 148.367586,42.0051179 148.726288,41.9338243 C149.643281,41.9338243 150.74615,41.2398839 150.74615,39.1208875 C150.828675,38.4295798 150.599358,37.7373926 150.120406,37.2320986 C149.641454,36.7268046 148.962524,36.4607906 148.267792,36.5062194 C147.462325,36.5062194 147.326016,36.6053537 147.326016,36.9894993 L147.326016,40.6450779 L147.338407,40.6946451 Z M147.338407,35.4157417 C147.338407,36.0105477 147.511893,36.0725067 148.019956,36.0725067 C148.642826,36.1282381 149.256951,35.8958602 149.686904,35.4417526 C150.116857,34.9876451 150.315355,34.3617475 150.225695,33.7428498 C150.286203,33.2040752 150.103575,32.6663474 149.727463,32.2758617 C149.351352,31.885376 148.820848,31.6827188 148.280184,31.7229876 C147.474717,31.7229876 147.338407,31.9832153 147.338407,32.4417116 L147.338407,35.4157417 L147.338407,35.4157417 Z M145.640732,32.3054019 C145.650435,32.2005912 145.610249,32.0973248 145.532254,32.0266414 C145.454259,31.9559581 145.347547,31.9260993 145.244195,31.9460399 L144.711348,31.9460399 C144.657091,31.9582102 144.600289,31.9436361 144.558595,31.9068469 C144.516901,31.8700578 144.495367,31.8155124 144.500687,31.760163 C144.543824,31.5674814 144.726006,31.4388823 144.922008,31.46276 C146.051927,31.316347 147.190402,31.2459685 148.329751,31.2520996 C150.659408,31.2520996 151.985329,32.057566 151.985329,33.730458 C151.968332,34.9766992 151.049722,36.0265385 149.816766,36.2088164 L149.816766,36.2088164 C151.398243,36.2876203 152.643308,37.5870552 152.654486,39.1704547 C152.703343,40.8950031 151.354819,42.3374815 149.630889,42.4047124 C148.862598,42.4047124 148.205833,42.3303616 147.041004,42.3303616 C145.876176,42.3303616 145.343329,42.4047124 144.909616,42.4047124 C144.475904,42.4047124 144.525471,42.3303616 144.525471,42.2188355 C144.525471,42.1073094 144.612213,42.0577422 144.983967,41.9462161 C145.553989,41.7603392 145.677907,41.6983802 145.677907,41.2274922 L145.677907,32.2434429 L145.640732,32.3054019 Z" id="Shape"></path>
                    <path d="M158.565371,38.4765143 C158.565371,36.8655813 157.958173,34.6846259 156.83052,34.6846259 C155.702867,34.6846259 155.095669,36.8531896 155.095669,38.4765143 C155.095669,40.0998391 155.702867,42.2684027 156.83052,42.2684027 C157.958173,42.2684027 158.565371,40.0998391 158.565371,38.4765143 M156.83052,42.6897236 C154.897401,42.6897236 153.497128,40.7318205 153.497128,38.4765143 C153.497128,36.2212082 154.909792,34.2756968 156.83052,34.2756968 C158.751248,34.2756968 160.163912,36.2459917 160.163912,38.4765143 C160.163912,40.7070369 158.751248,42.6525482 156.83052,42.6525482" id="Shape"></path>
                    <path d="M163.992976,39.5174248 C164.649741,39.5174248 165.145413,38.6499994 165.145413,37.1010254 C165.145413,35.5520514 164.662133,34.622667 163.992976,34.622667 C163.323819,34.622667 162.840539,35.4900924 162.840539,37.1010254 C162.840539,38.7119584 163.323819,39.5174248 163.992976,39.5174248 L163.992976,39.5174248 Z M163.707965,42.3179699 C162.864181,42.3315527 162.189251,43.0230792 162.196166,43.8669439 C162.180746,44.4028663 162.392951,44.9202626 162.780238,45.2910185 C163.167524,45.6617744 163.693679,45.8512233 164.22842,45.8124552 C164.765121,45.8824206 165.30532,45.7117461 165.704398,45.3461236 C166.103476,44.9805011 166.320676,44.4572717 166.297849,43.916511 C166.297849,42.5781975 165.182588,42.3179699 163.707965,42.3179699 L163.707965,42.3179699 Z M166.335025,35.4157417 C166.570297,35.9169738 166.701003,36.4608781 166.71917,37.0142829 C166.729974,37.8176206 166.398259,38.5875673 165.807004,39.1315216 C165.21575,39.6754759 164.420877,39.9419897 163.621222,39.864395 C163.185648,39.8376639 162.781646,40.0920359 162.617487,40.4963764 C162.617487,41.83469 167.413111,39.7776525 167.413111,43.3588804 C167.413111,45.3043917 165.740219,46.2337761 163.757532,46.2337761 C161.774845,46.2337761 161.080905,45.2548246 161.080905,44.2015222 C161.080905,43.1482199 162.505961,42.5905893 162.505961,42.2931863 C162.096256,41.8535419 161.723255,41.3810738 161.3907,40.880522 C161.3907,40.4096339 162.927282,39.8024361 162.927282,39.6413428 C161.989594,39.0865324 161.400609,38.0908673 161.365916,37.0018911 C161.338871,36.2859824 161.605377,35.5900829 162.103707,35.0753756 C162.602038,34.5606683 163.288959,34.2718068 164.005368,34.2756968 C164.43681,34.2695459 164.862892,34.3718057 165.244547,34.5730998 C165.443453,34.7115388 165.666054,34.8123393 165.901312,34.8705028 L167.289193,34.8705028 C167.375935,34.8705028 167.413111,34.8705028 167.413111,35.1431223 C167.413111,35.4157417 167.413111,35.4157417 167.289193,35.4157417 L166.335025,35.4157417 L166.335025,35.4157417 Z" id="Shape"></path>
                    <path d="M173.051376,38.4765143 C173.051376,36.8655813 172.444178,34.6846259 171.316525,34.6846259 C170.188872,34.6846259 169.581674,36.8531896 169.581674,38.4765143 C169.581674,40.0998391 170.188872,42.2684027 171.316525,42.2684027 C172.444178,42.2684027 173.051376,40.0998391 173.051376,38.4765143 M171.316525,42.6897236 C169.383406,42.6897236 167.983133,40.7318205 167.983133,38.4765143 C167.983133,36.2212082 169.395797,34.2756968 171.316525,34.2756968 C173.237253,34.2756968 174.649917,36.2459917 174.649917,38.4765143 C174.649917,40.7070369 173.237253,42.6897236 171.316525,42.6897236" id="Shape"></path>
                    <path d="M177.57438,34.5483162 L178.689641,34.5483162 C178.863126,34.5483162 178.900302,34.622667 178.900302,34.8457192 C178.900302,35.0687715 178.900302,35.1431223 178.689641,35.1431223 L177.661123,35.1431223 C177.61126,35.1494028 177.573986,35.1920017 177.57438,35.2422566 L177.57438,40.583119 C177.57438,41.3514101 177.747865,41.6488131 178.094835,41.6488131 C178.441806,41.6488131 178.739209,40.818563 178.974653,40.818563 C179.210097,40.818563 179.135746,40.8929138 179.135746,41.0416153 C178.980325,41.8812673 178.307771,42.528912 177.462854,42.6525482 C176.434335,42.6525482 176.136932,41.710772 176.136932,40.5707272 L176.136932,35.3909581 C176.136932,35.1802976 176.136932,35.1183387 175.951055,35.1183387 L175.480167,35.1183387 C175.319074,35.1183387 175.306682,35.1183387 175.306682,34.9572454 C175.566324,34.5898349 175.884473,34.2675 176.248458,34.0030774 C177.128276,33.0489094 177.078708,32.3054019 177.400895,32.3054019 C177.516305,32.3356585 177.590839,32.4474601 177.57438,32.5656295 L177.57438,34.5235327 L177.57438,34.5483162 Z" id="Shape"></path>
                    <path d="M181.217567,33.3587042 L183.262213,31.0290473 C183.469344,30.6704581 183.83081,30.4279554 184.241164,30.3722823 C184.415201,30.3654158 184.584356,30.4306788 184.708681,30.5526585 C184.833007,30.6746383 184.90148,30.8425197 184.897929,31.0166555 C184.866357,31.3124371 184.683329,31.5705531 184.414649,31.6982041 L181.936291,33.371096 L181.168,33.371096 L181.217567,33.3587042 Z M183.200254,38.315421 C183.200254,38.1047606 183.200254,38.0675852 183.026769,38.0675852 C182.064835,38.6300102 181.381901,39.5690453 181.143216,40.6574697 C181.11179,40.8891184 181.178008,41.123412 181.32604,41.3043405 C181.474073,41.4852691 181.690614,41.5965707 181.923899,41.6116377 C182.741757,41.6116377 183.163078,40.9920481 183.163078,39.4182905 L183.163078,38.3030292 L183.200254,38.315421 Z M184.62531,40.7194287 C184.62531,41.413369 184.935105,41.6240295 185.195332,41.6240295 C185.443226,41.459785 185.675515,41.2731245 185.889273,41.0663989 C185.988407,41.0663989 186.050366,41.1407496 186.050366,41.2770593 C185.918683,42.0285578 185.29856,42.5978511 184.538567,42.66494 C183.423306,42.66494 183.299388,41.4257608 183.101119,41.4257608 C182.902851,41.4257608 182.370004,42.6525482 181.056474,42.6525482 C180.648332,42.6942817 180.243598,42.5465045 179.958368,42.2516059 C179.673139,41.9567074 179.538931,41.5472737 179.594242,41.1407496 C179.594242,39.2324136 183.249821,38.0056262 183.249821,36.9151485 L183.249821,35.4157417 C183.272085,35.212543 183.203626,35.0098648 183.06271,34.8617836 C182.921794,34.7137023 182.722757,34.6352837 182.518705,34.6474506 C181.755103,34.7123401 181.171145,35.3557749 181.180392,36.1220738 C181.207729,36.4307126 181.108265,36.7371839 180.904892,36.9709459 C180.701519,37.2047079 180.411758,37.3456219 180.102306,37.361253 C179.93895,37.3878672 179.772349,37.3388404 179.649446,37.2279874 C179.526544,37.1171343 179.460647,36.9564569 179.470324,36.7912306 C179.965852,35.2886855 181.358091,34.2643959 182.940026,34.2385214 C184.303123,34.2385214 184.662485,34.4863573 184.662485,35.4777006 L184.662485,40.6946451 L184.62531,40.7194287 Z" id="Shape"></path>
                </g>
            </g>
        </g>
    </g>
</svg>